<?xml version="1.0" encoding="UTF-8" standalone="no"?>
<!-- Created with Inkscape (http://www.inkscape.org/) -->

<svg
   xmlns:dc="http://purl.org/dc/elements/1.1/"
   xmlns:cc="http://creativecommons.org/ns#"
   xmlns:rdf="http://www.w3.org/1999/02/22-rdf-syntax-ns#"
   xmlns:svg="http://www.w3.org/2000/svg"
   xmlns="http://www.w3.org/2000/svg"
   xmlns:xlink="http://www.w3.org/1999/xlink"
   version="1.1"
   width="1410.0031"
   height="500.0011"
   viewBox="0 0 1.9583376 0.69444597"
   id="body">
  <title
     id="title3178">Vector CCG Logo</title>
  <desc
     id="desc7870">This was produced by version 4.4 of GNU libplot, a free library for exporting 2-D vector graphics.</desc>
  <metadata
     id="metadata8250">
    <rdf:RDF>
      <cc:Work
         rdf:about="">
        <dc:format>image/svg+xml</dc:format>
        <dc:type
           rdf:resource="http://purl.org/dc/dcmitype/StillImage" />
        <dc:title>Vector CCG Logo</dc:title>
        <dc:date>2014-07-23</dc:date>
        <dc:creator>
          <cc:Agent>
            <dc:title>Todd Stedl</dc:title>
          </cc:Agent>
        </dc:creator>
        <dc:publisher>
          <cc:Agent>
            <dc:title>CCG</dc:title>
          </cc:Agent>
        </dc:publisher>
        <dc:source>previous vector and raster logos</dc:source>
      </cc:Work>
    </rdf:RDF>
  </metadata>
  <defs
     id="defs8248">
    <linearGradient
       id="linearGradient3896">
      <stop
         id="stop3898"
         style="stop-color:#000000;stop-opacity:1"
         offset="0" />
      <stop
         id="stop3900"
         style="stop-color:#0186aa;stop-opacity:1"
         offset="1" />
    </linearGradient>
    <linearGradient
       id="linearGradient5340">
      <stop
         id="stop5342"
         style="stop-color:#ffffff;stop-opacity:1"
         offset="0" />
      <stop
         id="stop5346"
         style="stop-color:#b09dbb;stop-opacity:1"
         offset="0.37887418" />
      <stop
         id="stop5348"
         style="stop-color:#886c99;stop-opacity:0.87843138"
         offset="0.66361576" />
      <stop
         id="stop5344"
         style="stop-color:#613c77;stop-opacity:0.75294119"
         offset="1" />
    </linearGradient>
    <linearGradient
       id="linearGradient5294">
      <stop
         id="stop5296"
         style="stop-color:#000000;stop-opacity:1"
         offset="0" />
      <stop
         id="stop5298"
         style="stop-color:#613c77;stop-opacity:0"
         offset="1" />
    </linearGradient>
    <linearGradient
       id="linearGradient5267">
      <stop
         id="stop5269"
         style="stop-color:#ffffff;stop-opacity:1"
         offset="0" />
      <stop
         id="stop5271"
         style="stop-color:#613c77;stop-opacity:1"
         offset="1" />
    </linearGradient>
    <linearGradient
       id="linearGradient4812">
      <stop
         id="stop4814"
         style="stop-color:#4f6a6e;stop-opacity:1"
         offset="0" />
      <stop
         id="stop4824"
         style="stop-color:#0088d0;stop-opacity:1"
         offset="1" />
    </linearGradient>
    <linearGradient
       x1="0.23898405"
       y1="0.53664106"
       x2="0.37671956"
       y2="0.53664106"
       id="linearGradient4818"
       xlink:href="#linearGradient4812"
       gradientUnits="userSpaceOnUse" />
    <linearGradient
       x1="0.48787427"
       y1="-0.30779108"
       x2="0.58533704"
       y2="-0.30779108"
       id="linearGradient4820"
       xlink:href="#linearGradient4812"
       gradientUnits="userSpaceOnUse"
       gradientTransform="translate(0.06047301,0.46958743)" />
    <clipPath
       id="clipPath4936">
      <path
         d="m 0.57289637,0.18599371 -0.0243511,-0.0243511 0.0242369,-0.0242369 0.0242369,-0.0242369 0.0243511,0.0243511 0.0243511,0.0243511 -0.0242369,0.0242369 -0.0242369,0.0242369 -0.0243511,-0.0243511 z"
         id="path4938"
         style="opacity:0.37283235;fill:#ff0000;fill-opacity:1;fill-rule:nonzero;stroke:#ff00ff;stroke-width:0;stroke-miterlimit:10.43299961;stroke-opacity:1;stroke-dasharray:none;display:inline" />
    </clipPath>
    <linearGradient
       x1="0.48787427"
       y1="-0.30779108"
       x2="0.58533704"
       y2="-0.30779108"
       id="linearGradient4361"
       xlink:href="#linearGradient3896"
       gradientUnits="userSpaceOnUse"
       gradientTransform="matrix(0.846,0,0,0.846,-0.48885695,0.93260949)" />
    <clipPath
       id="clipPath4385">
      <path
         d="m -0.05535952,0.65175998 0.02060099,-0.020601 0.02050447,0.0205045 0.02050447,0.0205045 -0.02060099,0.020601 -0.02060099,0.020601 -0.02050447,-0.0205045 -0.02050447,-0.0205045 0.02060099,-0.020601 z"
         id="path4387"
         style="opacity:0.37283235;fill:#ff0000;fill-opacity:1;fill-rule:nonzero;stroke:#ff00ff;stroke-width:0;stroke-miterlimit:10.43299961;stroke-opacity:1;stroke-dasharray:none;display:inline" />
    </clipPath>
    <radialGradient
       cx="301.16672"
       cy="361.19016"
       r="5.4181967"
       fx="301.16672"
       fy="361.19016"
       id="radialGradient5300"
       xlink:href="#linearGradient5294"
       gradientUnits="userSpaceOnUse"
       gradientTransform="matrix(1.57987,0.95876311,-0.79798289,0.98176164,115.95655,-289.83889)" />
    <radialGradient
       cx="313.59222"
       cy="350.73972"
       r="5.4181967"
       fx="313.59222"
       fy="350.73972"
       id="radialGradient5338"
       xlink:href="#linearGradient5340"
       gradientUnits="userSpaceOnUse"
       gradientTransform="matrix(1.111993,0.13049809,-0.15041301,0.95694003,18.040262,-25.963508)" />
    <filter
       x="-0.44647157"
       y="-0.51670724"
       width="1.8929431"
       height="2.0334144"
       color-interpolation-filters="sRGB"
       id="filter5576">
      <feGaussianBlur
         stdDeviation="2.0158924"
         id="feGaussianBlur5578" />
    </filter>
    <clipPath
       id="clipPath5691">
      <path
         d="m -0.05535952,0.65175998 0.02060099,-0.020601 0.02050447,0.0205045 0.02050447,0.0205045 -0.02060099,0.020601 -0.02060099,0.020601 -0.02050447,-0.0205045 -0.02050447,-0.0205045 0.02060099,-0.020601 z"
         id="path5693"
         style="opacity:0.37283235;fill:#ff0000;fill-opacity:1;fill-rule:nonzero;stroke:#ff00ff;stroke-width:0;stroke-miterlimit:10.43299961;stroke-opacity:1;stroke-dasharray:none;display:inline" />
    </clipPath>
    <linearGradient
       x1="0.48787427"
       y1="-0.30779108"
       x2="0.58533704"
       y2="-0.30779108"
       id="linearGradient5791"
       xlink:href="#linearGradient4812"
       gradientUnits="userSpaceOnUse"
       gradientTransform="matrix(8.460018,0,0,8.460018,-3.3210146,2.764252)" />
    <linearGradient
       x1="0.48787427"
       y1="-0.30779108"
       x2="0.58533704"
       y2="-0.30779108"
       id="linearGradient5793"
       xlink:href="#linearGradient4812"
       gradientUnits="userSpaceOnUse"
       gradientTransform="matrix(0.846,0,0,0.846,-0.48885695,0.93260949)" />
    <linearGradient
       x1="0.48787427"
       y1="-0.30779108"
       x2="0.58533704"
       y2="-0.30779108"
       id="linearGradient5795"
       xlink:href="#linearGradient3896"
       gradientUnits="userSpaceOnUse"
       gradientTransform="matrix(8.460018,0,0,8.460018,-3.3210146,2.764252)" />
    <radialGradient
       cx="313.59222"
       cy="350.73972"
       r="5.4181967"
       fx="313.59222"
       fy="350.73972"
       id="radialGradient5338-310"
       xlink:href="#linearGradient5340-261"
       gradientUnits="userSpaceOnUse"
       gradientTransform="matrix(1.111993,0.13049809,-0.15041301,0.95694003,18.040262,-25.963508)" />
    <linearGradient
       id="linearGradient5340-261">
      <stop
         id="stop7600"
         style="stop-color:#ffffff;stop-opacity:1"
         offset="0" />
      <stop
         id="stop7602"
         style="stop-color:#c4aed0;stop-opacity:1"
         offset="0.37887418" />
      <stop
         id="stop7604"
         style="stop-color:#9778aa;stop-opacity:0.87843138"
         offset="0.66361576" />
      <stop
         id="stop7606"
         style="stop-color:#6c4384;stop-opacity:0.75294119"
         offset="1" />
    </linearGradient>
    <radialGradient
       cx="301.16672"
       cy="361.19016"
       r="5.4181967"
       fx="301.16672"
       fy="361.19016"
       id="radialGradient5300-310"
       xlink:href="#linearGradient5294-202"
       gradientUnits="userSpaceOnUse"
       gradientTransform="matrix(1.57987,0.95876311,-0.79798289,0.98176164,115.95655,-289.83889)" />
    <linearGradient
       id="linearGradient5294-202">
      <stop
         id="stop7610"
         style="stop-color:#0a0a0a;stop-opacity:1"
         offset="0" />
      <stop
         id="stop7612"
         style="stop-color:#6c4384;stop-opacity:0"
         offset="1" />
    </linearGradient>
    <radialGradient
       cx="313.59222"
       cy="350.73972"
       r="5.4181967"
       fx="313.59222"
       fy="350.73972"
       id="radialGradient5338-310-985"
       xlink:href="#linearGradient5340-261-661"
       gradientUnits="userSpaceOnUse"
       gradientTransform="matrix(1.111993,0.13049809,-0.15041301,0.95694003,18.040262,-25.963508)" />
    <linearGradient
       id="linearGradient5340-261-661">
      <stop
         id="stop8041"
         style="stop-color:#ffffff;stop-opacity:1"
         offset="0" />
      <stop
         id="stop8043"
         style="stop-color:#cfbed9;stop-opacity:1"
         offset="0.37887418" />
      <stop
         id="stop8045"
         style="stop-color:#a387b3;stop-opacity:0.87843138"
         offset="0.66361576" />
      <stop
         id="stop8047"
         style="stop-color:#794b94;stop-opacity:0.75294119"
         offset="1" />
    </linearGradient>
    <radialGradient
       cx="301.16672"
       cy="361.19016"
       r="5.4181967"
       fx="301.16672"
       fy="361.19016"
       id="radialGradient5300-310-146"
       xlink:href="#linearGradient5294-202-47"
       gradientUnits="userSpaceOnUse"
       gradientTransform="matrix(1.57987,0.95876311,-0.79798289,0.98176164,115.95655,-289.83889)" />
    <linearGradient
       id="linearGradient5294-202-47">
      <stop
         id="stop8051"
         style="stop-color:#161616;stop-opacity:1"
         offset="0" />
      <stop
         id="stop8053"
         style="stop-color:#794b94;stop-opacity:0"
         offset="1" />
    </linearGradient>
    <radialGradient
       cx="313.59222"
       cy="350.73972"
       r="5.4181967"
       fx="313.59222"
       fy="350.73972"
       id="radialGradient5338-310-985-235"
       xlink:href="#linearGradient5340-261-661-22"
       gradientUnits="userSpaceOnUse"
       gradientTransform="matrix(1.111993,0.13049809,-0.15041301,0.95694003,18.040262,-25.963508)" />
    <linearGradient
       id="linearGradient5340-261-661-22">
      <stop
         id="stop8501"
         style="stop-color:#ffffff;stop-opacity:1"
         offset="0" />
      <stop
         id="stop8503"
         style="stop-color:#cfbbdb;stop-opacity:1"
         offset="0.37887418" />
      <stop
         id="stop8505"
         style="stop-color:#a482b7;stop-opacity:0.87843138"
         offset="0.66361576" />
      <stop
         id="stop8507"
         style="stop-color:#7a4599;stop-opacity:0.75294119"
         offset="1" />
    </linearGradient>
    <radialGradient
       cx="301.16672"
       cy="361.19016"
       r="5.4181967"
       fx="301.16672"
       fy="361.19016"
       id="radialGradient5300-310-146-573"
       xlink:href="#linearGradient5294-202-47-715"
       gradientUnits="userSpaceOnUse"
       gradientTransform="matrix(1.57987,0.95876311,-0.79798289,0.98176164,115.95655,-289.83889)" />
    <linearGradient
       id="linearGradient5294-202-47-715">
      <stop
         id="stop8511"
         style="stop-color:#171414;stop-opacity:1"
         offset="0" />
      <stop
         id="stop8513"
         style="stop-color:#7a4599;stop-opacity:0"
         offset="1" />
    </linearGradient>
    <radialGradient
       cx="313.59222"
       cy="350.73972"
       r="5.4181967"
       fx="313.59222"
       fy="350.73972"
       id="radialGradient5338-310-985-235-556"
       xlink:href="#linearGradient5340-261-661-22-500"
       gradientUnits="userSpaceOnUse"
       gradientTransform="matrix(1.111993,0.13049809,-0.15041301,0.95694003,18.040262,-25.963508)" />
    <linearGradient
       id="linearGradient5340-261-661-22-500">
      <stop
         id="stop9703"
         style="stop-color:#ffffff;stop-opacity:1"
         offset="0" />
      <stop
         id="stop9705"
         style="stop-color:#c5badb;stop-opacity:1"
         offset="0.37887418" />
      <stop
         id="stop9707"
         style="stop-color:#9482b7;stop-opacity:0.87843138"
         offset="0.66361576" />
      <stop
         id="stop9709"
         style="stop-color:#604599;stop-opacity:0.75294119"
         offset="1" />
    </linearGradient>
    <radialGradient
       cx="301.16672"
       cy="361.19016"
       r="5.4181967"
       fx="301.16672"
       fy="361.19016"
       id="radialGradient5300-310-146-573-146"
       xlink:href="#linearGradient5294-202-47-715-160"
       gradientUnits="userSpaceOnUse"
       gradientTransform="matrix(1.57987,0.95876311,-0.79798289,0.98176164,115.95655,-289.83889)" />
    <linearGradient
       id="linearGradient5294-202-47-715-160">
      <stop
         id="stop9713"
         style="stop-color:#171414;stop-opacity:1"
         offset="0" />
      <stop
         id="stop9715"
         style="stop-color:#604599;stop-opacity:0"
         offset="1" />
    </linearGradient>
    <radialGradient
       cx="313.59222"
       cy="350.73972"
       r="5.4181967"
       fx="313.59222"
       fy="350.73972"
       id="radialGradient5338-310-985-235-556-504"
       xlink:href="#linearGradient5340-261-661-22-500-764"
       gradientUnits="userSpaceOnUse"
       gradientTransform="matrix(1.111993,0.13049809,-0.15041301,0.95694003,18.040262,-25.963508)" />
    <linearGradient
       id="linearGradient5340-261-661-22-500-764">
      <stop
         id="stop10203"
         style="stop-color:#ffffff;stop-opacity:1"
         offset="0" />
      <stop
         id="stop10205"
         style="stop-color:#c4b7dd;stop-opacity:1"
         offset="0.37887418" />
      <stop
         id="stop10207"
         style="stop-color:#927dbb;stop-opacity:0.87843138"
         offset="0.66361576" />
      <stop
         id="stop10209"
         style="stop-color:#5e3f9e;stop-opacity:0.75294119"
         offset="1" />
    </linearGradient>
    <radialGradient
       cx="301.16672"
       cy="361.19016"
       r="5.4181967"
       fx="301.16672"
       fy="361.19016"
       id="radialGradient5300-310-146-573-146-206"
       xlink:href="#linearGradient5294-202-47-715-160-253"
       gradientUnits="userSpaceOnUse"
       gradientTransform="matrix(1.57987,0.95876311,-0.79798289,0.98176164,115.95655,-289.83889)" />
    <linearGradient
       id="linearGradient5294-202-47-715-160-253">
      <stop
         id="stop10213"
         style="stop-color:#181212;stop-opacity:1"
         offset="0" />
      <stop
         id="stop10215"
         style="stop-color:#5e3f9e;stop-opacity:0"
         offset="1" />
    </linearGradient>
    <linearGradient
       x1="0.48787427"
       y1="-0.30779108"
       x2="0.58533704"
       y2="-0.30779108"
       id="linearGradient3249"
       xlink:href="#linearGradient4812"
       gradientUnits="userSpaceOnUse"
       gradientTransform="matrix(0.846,0,0,0.846,-0.48885695,0.93260949)" />
  </defs>
  <g
     transform="translate(-0.64286619,1.0928398)"
     id="g5669"
     style="display:inline">
    <rect
       width="0.082453527"
       height="0.082364544"
       x="-0.076115303"
       y="0.63103592"
       transform="matrix(7.0710829,-7.0710829,7.0710829,7.0710829,-3.5315016,-5.7483737)"
       clip-path="url(#clipPath5691)"
       id="rect5671"
       style="fill:url(#linearGradient3249);fill-opacity:1;fill-rule:nonzero" />
  </g>
  <g
     transform="translate(-0.64286619,1.0928398)"
     id="layer2"
     style="display:inline">
    <polygon
       points="88.574,81.93 88.574,81.93 260.53,81.93 "
       transform="matrix(0.00712684,0,0,-0.00712684,0.68428152,-0.45267412)"
       id="polygon7990"
       style="font-style:normal;font-variant:normal;font-weight:normal;font-stretch:normal;letter-spacing:normal;word-spacing:normal;text-anchor:start;fill:none;stroke:#0088d0;stroke-width:1.00839996;stroke-linecap:butt;stroke-linejoin:miter;stroke-miterlimit:10.43299961;stroke-opacity:1;stroke-dasharray:none;stroke-dashoffset:0" />
    <path
       d="m 1.4445011,-0.87004291 -0.00107,6.342e-4 -0.00114,6.129e-4 -0.00114,5.9151e-4 -0.00121,5.772e-4 -0.00121,5.559e-4 -0.00128,5.345e-4 -0.00128,5.204e-4 -0.00135,4.988e-4 -0.00271,9.409e-4 -0.00278,8.6201e-4 -0.00285,7.911e-4 -0.00292,7.057e-4 -0.00285,6.272e-4 -0.00285,5.415e-4 -0.00285,4.635e-4 -0.00278,3.846e-4 -0.00135,1.568e-4 -0.00135,1.425e-4 -0.00128,1.141e-4 -0.00128,9.97e-5 -0.00121,7.14e-5 -0.00121,5.71e-5 -0.00121,3.57e-5 -0.00114,7e-6 c -0.04655,0 -0.07786,-0.0266 -0.07786,-0.0705702 0,-0.02229 0.00868,-0.0399401 0.02354,-0.0521201 0.01456,-0.01199 0.03436,-0.01855 0.0561,-0.01855 0.01803,0 0.03549,0.004639 0.04483,0.007882 -0.00192,0.009111 -0.00371,0.01937 -0.00371,0.0294701 h -0.00599 v -0.01396 c 0,-0.005419 -0.00777,-0.008705 -0.01667,-0.01203 -0.00627,-0.002109 -0.01461,-0.003285 -0.02173,-0.003285 -0.0365,0 -0.05571,0.0265601 -0.05571,0.0594901 0,0.0383801 0.02542,0.0631401 0.06383,0.0631401 0.01397,0 0.03051,-0.005008 0.03942,-0.01162 l 0.00171,0.001946 z"
       id="path7992"
       style="font-style:normal;font-variant:normal;font-weight:normal;font-stretch:normal;letter-spacing:normal;word-spacing:normal;text-anchor:start;fill:#000000;fill-opacity:1;fill-rule:nonzero;stroke:#000000;stroke-width:0;stroke-linecap:butt;stroke-linejoin:miter;stroke-miterlimit:10.43299961;stroke-opacity:1;stroke-dasharray:none;stroke-dashoffset:0" />
    <path
       d="m 1.5935946,-0.88649154 0,6.839e-4 0,6.773e-4 0,6.556e-4 0,6.486e-4 0,6.268e-4 0,6.2031e-4 0,5.985e-4 7.13e-5,5.916e-4 0,5.702e-4 0,5.558e-4 7.12e-5,5.489e-4 0,5.274e-4 7.13e-5,5.131e-4 0,4.988e-4 7.12e-5,4.8451e-4 7.14e-5,4.634e-4 0,4.561e-4 7.12e-5,4.347e-4 7.13e-5,4.203e-4 7.12e-5,4.065e-4 7.14e-5,3.92e-4 7.12e-5,3.703e-4 7.12e-5,3.567e-4 7.13e-5,3.42e-4 7.13e-5,3.276e-4 1.425e-4,3.066e-4 7.14e-5,2.9221e-4 7.12e-5,2.78e-4 1.425e-4,2.636e-4 7.13e-5,2.425e-4 1.425e-4,2.209e-4 1.425e-4,2.139e-4 c 0.00114,0.001945 0.00349,0.002729 0.00812,0.002922 l 0.00933,5.5581e-4 v 0.005788 c -0.01012,-3.921e-4 -0.01917,-6.7e-4 -0.02815,-6.7e-4 -0.00948,0 -0.0186,2.779e-4 -0.02865,6.7e-4 v -0.005788 l 0.00926,-5.5581e-4 c 0.0047,-1.926e-4 0.00698,-9.766e-4 0.0082,-0.002922 0.00128,-0.002145 0.00171,-0.007184 0.00171,-0.01458 v -0.0433501 c -0.00228,-1.926e-4 -0.00755,-3.921e-4 -0.01603,-3.921e-4 h -0.04533 c -0.00855,0 -0.01382,1.995e-4 -0.01611,3.921e-4 v 0.0433501 c 0,0.007389 3.565e-4,0.01244 0.00178,0.01458 0.00114,0.001945 0.00342,0.002729 0.00812,0.002922 l 0.00926,5.5581e-4 v 0.005788 c -0.01005,-3.921e-4 -0.01917,-6.7e-4 -0.02808,-6.7e-4 -0.00948,0 -0.0186,2.779e-4 -0.02872,6.7e-4 v -0.005788 l 0.00933,-5.5581e-4 c 0.00463,-1.926e-4 0.00698,-9.766e-4 0.00812,-0.002922 0.00135,-0.002145 0.00178,-0.007184 0.00178,-0.01458 v -0.0872702 c 0,-0.007389 -4.276e-4,-0.01239 -0.00178,-0.01458 -0.00114,-0.001953 -0.00349,-0.00273 -0.00812,-0.002922 l -0.00933,-5.841e-4 v -0.005747 c 0.01012,3.916e-4 0.01924,6.7e-4 0.02872,6.7e-4 0.00891,0 0.01803,-2.784e-4 0.02808,-6.7e-4 v 0.005747 l -0.00926,5.841e-4 c -0.0047,1.925e-4 -0.00698,9.6921e-4 -0.00812,0.002922 -0.00143,0.002145 -0.00178,0.007184 -0.00178,0.01458 v 0.0346101 c 0.00228,1.999e-4 0.00755,3.9201e-4 0.01611,3.9201e-4 h 0.04533 c 0.00848,0 0.01376,-1.9211e-4 0.01603,-3.9201e-4 v -0.0346101 c 0,-0.007389 -4.277e-4,-0.01239 -0.00171,-0.01458 -0.00121,-0.001953 -0.00349,-0.00273 -0.0082,-0.002922 l -0.00926,-5.841e-4 v -0.005747 c 0.01005,3.916e-4 0.01917,6.7e-4 0.02865,6.7e-4 0.00898,0 0.01803,-2.784e-4 0.02815,-6.7e-4 v 0.005747 l -0.00933,5.841e-4 c -0.00463,1.925e-4 -0.00698,9.6921e-4 -0.00812,0.002922 -0.00135,0.002145 -0.00171,0.007184 -0.00171,0.01458 z"
       id="path7994"
       style="font-style:normal;font-variant:normal;font-weight:normal;font-stretch:normal;letter-spacing:normal;word-spacing:normal;text-anchor:start;fill:#000000;fill-opacity:1;fill-rule:nonzero;stroke:#000000;stroke-width:0;stroke-linecap:butt;stroke-linejoin:miter;stroke-miterlimit:10.43299961;stroke-opacity:1;stroke-dasharray:none;stroke-dashoffset:0" />
    <path
       d="m 1.640703,-0.97382403 0,-6.843e-4 0,-6.699e-4 0,-6.486e-4 0,-6.4121e-4 -7.13e-5,-6.273e-4 0,-6.129e-4 0,-5.985e-4 0,-5.845e-4 -7.12e-5,-5.702e-4 0,-5.559e-4 0,-5.414e-4 -7.13e-5,-5.276e-4 0,-5.1311e-4 -7.12e-5,-4.988e-4 -7.14e-5,-4.774e-4 0,-4.634e-4 -7.12e-5,-4.561e-4 -7.13e-5,-4.347e-4 -7.13e-5,-4.203e-4 0,-4.065e-4 -7.12e-5,-3.846e-4 -7.13e-5,-3.781e-4 -1.426e-4,-3.5631e-4 -7.12e-5,-3.42e-4 -7.12e-5,-3.205e-4 -7.13e-5,-3.137e-4 -1.426e-4,-2.923e-4 -7.12e-5,-2.709e-4 -1.426e-4,-2.636e-4 -7.12e-5,-2.422e-4 -1.426e-4,-2.282e-4 -1.425e-4,-2.065e-4 c -0.00114,-0.001924 -0.00349,-0.002701 -0.00812,-0.002894 l -0.00933,-5.841e-4 v -0.005747 c 0.01069,1.921e-4 0.02173,6.7e-4 0.03278,6.7e-4 0.01689,0 0.03478,-6.7e-4 0.04583,-6.7e-4 0.0087,0 0.01724,1.921e-4 0.0248,5.558e-4 -0.00214,0.008494 -0.00314,0.0195 -0.00314,0.0293901 h -0.00671 v -0.01256 c 0,-0.002509 -2.137e-4,-0.004639 -0.00171,-0.005255 -0.01019,-0.00387 -0.02552,-0.004062 -0.03792,-0.004062 -0.0052,0 -0.01084,1.921e-4 -0.01632,0.001561 v 0.0519801 c 0.0062,3.851e-4 0.01326,5.846e-4 0.02252,5.846e-4 0.01183,0 0.01846,-7.841e-4 0.02059,-0.002174 9.265e-4,-7.768e-4 0.00135,-0.002537 0.00157,-0.00509 l 9.264e-4,-0.01022 h 0.00585 c -2.138e-4,0.008087 -7.126e-4,0.01556 -7.126e-4,0.0227 0,0.007143 4.988e-4,0.01458 7.126e-4,0.02155 h -0.00585 l -9.264e-4,-0.0115 c -2.139e-4,-0.00253 -6.415e-4,-0.004269 -0.00157,-0.004885 -0.00214,-0.001532 -0.00876,-0.002316 -0.02059,-0.002316 -0.00926,0 -0.01646,0 -0.02252,5.845e-4 v 0.0544601 c 0.00549,0.001361 0.01112,0.001561 0.01632,0.001561 0.01589,0 0.03571,-5.842e-4 0.0392,-0.002537 0.00285,-0.001554 0.00534,-0.01014 0.0067,-0.0218 h 0.00677 c -0.00192,0.009357 -0.00314,0.02143 -0.00314,0.0318201 -0.00841,1.922e-4 -0.02366,7.767e-4 -0.03806,5.842e-4 -0.01497,-1.996e-4 -0.03029,-6.699e-4 -0.04233,-6.699e-4 -0.00734,0 -0.01376,4.703e-4 -0.02074,6.699e-4 v -0.005788 l 0.00698,-5.5581e-4 c 0.00463,-3.92e-4 0.00698,-9.766e-4 0.00812,-0.002922 0.00143,-0.002145 0.00178,-0.007184 0.00178,-0.01458 z"
       id="path7996"
       style="font-style:normal;font-variant:normal;font-weight:normal;font-stretch:normal;letter-spacing:normal;word-spacing:normal;text-anchor:start;fill:#000000;fill-opacity:1;fill-rule:nonzero;stroke:#000000;stroke-width:0;stroke-linecap:butt;stroke-linejoin:miter;stroke-miterlimit:10.43299961;stroke-opacity:1;stroke-dasharray:none;stroke-dashoffset:0" />
    <path
       d="m 1.8936344,-0.88649154 0,6.839e-4 0,6.773e-4 0,6.556e-4 0,6.486e-4 0,6.268e-4 0,6.2031e-4 7.13e-5,5.985e-4 0,5.916e-4 0,5.702e-4 7.12e-5,5.558e-4 0,5.489e-4 0,5.274e-4 7.13e-5,5.131e-4 0,4.988e-4 7.13e-5,4.8451e-4 7.12e-5,4.634e-4 0,4.561e-4 7.12e-5,4.347e-4 7.14e-5,4.203e-4 7.13e-5,4.065e-4 7.12e-5,3.92e-4 7.12e-5,3.703e-4 7.14e-5,3.567e-4 7.12e-5,3.42e-4 7.13e-5,3.276e-4 1.425e-4,3.066e-4 7.13e-5,2.9221e-4 7.12e-5,2.78e-4 1.426e-4,2.636e-4 1.425e-4,2.425e-4 7.13e-5,2.209e-4 1.425e-4,2.139e-4 c 0.00114,0.001945 0.00349,0.002729 0.00812,0.002922 l 0.00933,5.5581e-4 v 0.005788 c -0.01012,-3.921e-4 -0.01924,-6.7e-4 -0.02815,-6.7e-4 -0.00948,0 -0.0186,2.779e-4 -0.02594,6.7e-4 v -0.005788 l 0.00656,-5.5581e-4 c 0.0047,-3.921e-4 0.00698,-9.766e-4 0.00812,-0.002922 0.00143,-0.002145 0.00178,-0.007184 0.00178,-0.01458 v -0.0882502 h -3.564e-4 c -0.00292,0.005213 -0.00563,0.01068 -0.00812,0.01589 l -0.03449,0.0733602 c -0.00371,0.007964 -0.00698,0.01651 -0.01047,0.0246301 h -0.00392 l -0.05366,-0.11389524 H 1.763792 v 0.0882502 c 0,0.007389 3.564e-4,0.01244 0.00171,0.01458 0.00121,0.001945 0.00349,0.00253 0.00812,0.002922 l 0.00855,5.5581e-4 v 0.005788 c -0.00855,-1.995e-4 -0.01546,-6.7e-4 -0.02323,-6.7e-4 -0.00706,0 -0.01482,4.705e-4 -0.02252,6.7e-4 v -0.005788 l 0.00848,-5.5581e-4 c 0.0047,-3.92e-4 0.00698,-9.766e-4 0.0082,-0.002922 0.00135,-0.002145 0.00171,-0.007184 0.00171,-0.01458 v -0.0872702 c 0,-0.007389 -3.563e-4,-0.01239 -0.00171,-0.01458 -0.00121,-0.001953 -0.00349,-0.002537 -0.0082,-0.002922 l -0.00848,-5.841e-4 v -0.005753 c 0.00599,1.921e-4 0.01219,6.7e-4 0.01838,6.7e-4 0.00627,0 0.01247,-4.779e-4 0.01846,-6.7e-4 l 0.05117,0.10801323 0.05074,-0.10801323 c 0.0062,1.921e-4 0.01219,6.7e-4 0.01838,6.7e-4 0.0062,0 0.01247,-4.779e-4 0.0181,-6.7e-4 v 0.005747 l -0.0082,5.841e-4 c -0.00463,3.851e-4 -0.00698,9.6921e-4 -0.00812,0.002922 -0.00135,0.002145 -0.00171,0.007184 -0.00171,0.01458 z"
       id="path7998"
       style="font-style:normal;font-variant:normal;font-weight:normal;font-stretch:normal;letter-spacing:normal;word-spacing:normal;text-anchor:start;fill:#000000;fill-opacity:1;fill-rule:nonzero;stroke:#000000;stroke-width:0;stroke-linecap:butt;stroke-linejoin:miter;stroke-miterlimit:10.43299961;stroke-opacity:1;stroke-dasharray:none;stroke-dashoffset:0" />
    <path
       d="m 1.9606979,-0.88649154 0,6.839e-4 0,6.773e-4 0,6.556e-4 0,6.486e-4 7.12e-5,6.268e-4 0,6.2031e-4 0,5.985e-4 0,5.916e-4 7.13e-5,5.702e-4 0,5.558e-4 0,5.489e-4 7.13e-5,5.274e-4 0,5.131e-4 7.12e-5,4.988e-4 7.13e-5,4.8451e-4 0,4.634e-4 7.13e-5,4.561e-4 7.13e-5,4.347e-4 7.12e-5,4.203e-4 7.13e-5,4.065e-4 7.13e-5,3.92e-4 7.12e-5,3.703e-4 7.13e-5,3.567e-4 7.13e-5,3.42e-4 7.12e-5,3.276e-4 7.13e-5,3.066e-4 1.426e-4,2.9221e-4 7.12e-5,2.78e-4 1.425e-4,2.636e-4 7.13e-5,2.425e-4 1.425e-4,2.209e-4 1.426e-4,2.139e-4 c 0.00114,0.001945 0.00349,0.002729 0.00812,0.002922 l 0.00933,5.5581e-4 v 0.005788 c -0.01012,-3.921e-4 -0.01924,-6.7e-4 -0.02815,-6.7e-4 -0.00948,0 -0.0186,2.779e-4 -0.02872,6.7e-4 v -0.005788 l 0.00933,-5.5581e-4 c 0.00463,-1.926e-4 0.00698,-9.766e-4 0.00812,-0.002922 0.00135,-0.002145 0.00178,-0.007184 0.00178,-0.01458 v -0.0872702 c 0,-0.007389 -4.276e-4,-0.01239 -0.00178,-0.01458 -0.00114,-0.001953 -0.00349,-0.00273 -0.00812,-0.002922 l -0.00933,-5.841e-4 v -0.005747 c 0.01012,3.916e-4 0.01924,6.7e-4 0.02872,6.7e-4 0.00891,0 0.01803,-2.784e-4 0.02815,-6.7e-4 v 0.005747 l -0.00933,5.841e-4 c -0.00463,1.925e-4 -0.00698,9.6921e-4 -0.00812,0.002922 -0.00135,0.002145 -0.00178,0.007184 -0.00178,0.01458 z"
       id="path8000"
       style="font-style:normal;font-variant:normal;font-weight:normal;font-stretch:normal;letter-spacing:normal;word-spacing:normal;text-anchor:start;fill:#000000;fill-opacity:1;fill-rule:nonzero;stroke:#000000;stroke-width:0;stroke-linecap:butt;stroke-linejoin:miter;stroke-miterlimit:10.43299961;stroke-opacity:1;stroke-dasharray:none;stroke-dashoffset:0" />
    <path
       d="m 2.1040186,-0.87004291 -0.00107,6.342e-4 -0.00107,6.129e-4 -0.00121,5.9151e-4 -0.00114,5.772e-4 -0.00128,5.559e-4 -0.00128,5.345e-4 -0.00128,5.204e-4 -0.00128,4.988e-4 -0.00278,9.409e-4 -0.00278,8.6201e-4 -0.00285,7.911e-4 -0.00285,7.057e-4 -0.00292,6.272e-4 -0.00285,5.415e-4 -0.00285,4.635e-4 -0.00278,3.846e-4 -0.00135,1.568e-4 -0.00128,1.425e-4 -0.00135,1.141e-4 -0.00121,9.97e-5 -0.00128,7.14e-5 -0.00121,5.71e-5 -0.00114,3.57e-5 -0.00114,7e-6 c -0.04661,0 -0.0779,-0.0266 -0.0779,-0.0705702 0,-0.02229 0.0087,-0.0399401 0.02359,-0.0521201 0.01454,-0.01199 0.03435,-0.01855 0.05601,-0.01855 0.0181,0 0.03557,0.004639 0.04483,0.007882 -0.00192,0.009111 -0.00363,0.01937 -0.00363,0.0294701 h -0.00606 v -0.01396 c 0,-0.005419 -0.00777,-0.008705 -0.01667,-0.01203 -0.0062,-0.002109 -0.01454,-0.003285 -0.02173,-0.003285 -0.03649,0 -0.05566,0.0265601 -0.05566,0.0594901 0,0.0383801 0.02537,0.0631401 0.06379,0.0631401 0.01397,0 0.03051,-0.005008 0.03942,-0.01162 l 0.00178,0.001946 z"
       id="path8002"
       style="font-style:normal;font-variant:normal;font-weight:normal;font-stretch:normal;letter-spacing:normal;word-spacing:normal;text-anchor:start;fill:#000000;fill-opacity:1;fill-rule:nonzero;stroke:#000000;stroke-width:0;stroke-linecap:butt;stroke-linejoin:miter;stroke-miterlimit:10.43299961;stroke-opacity:1;stroke-dasharray:none;stroke-dashoffset:0" />
    <path
       d="m 2.1766518,-0.99912438 c -0.0052,0.01396 -0.01183,0.0283201 -0.01782,0.0418701 l -0.03457,0.0787502 c -0.00214,0.005049 -0.0057,0.009069 -0.01033,0.009441 l -0.00713,7.1271e-4 0,0.005706 c 0.00734,-1.995e-4 0.01453,-7.127e-4 0.0221,-7.127e-4 0.00563,0 0.01311,5.132e-4 0.02245,7.127e-4 l 0,-0.005706 -0.00731,-7.1271e-4 c -0.00606,-5.846e-4 -0.00926,-0.001206 -0.00926,-0.005337 0,-0.003115 0.00499,-0.01622 0.00677,-0.02032 l 0.00552,-0.01318 0.05577,0 0.00891,0.0224501 c 0.00192,0.00468 0.0041,0.009856 0.0041,0.01265 0,0.002337 -0.00378,0.003549 -0.00784,0.003742 l -0.00926,7.1261e-4 0,0.005706 c 0.01047,-1.995e-4 0.01906,-7.126e-4 0.02584,-7.126e-4 0.0087,0 0.01728,5.131e-4 0.02584,7.126e-4 l 0,-0.005706 -0.00659,-7.1261e-4 c -0.00342,-3.924e-4 -0.00563,-0.002864 -0.00784,-0.006609 -0.00228,-0.004091 -0.00445,-0.009281 -0.00624,-0.01318 l -0.04686,-0.11028723 -0.00624,0 z m -0.00178,0.0256601 0.02459,0.0579101 -0.04918,0 0.02459,-0.0579101 z"
       id="path8004"
       style="font-style:normal;font-variant:normal;font-weight:normal;font-stretch:normal;letter-spacing:normal;word-spacing:normal;text-anchor:start;fill:#000000;fill-opacity:1;fill-rule:nonzero;stroke:#000000;stroke-width:0;stroke-linecap:butt;stroke-linejoin:miter;stroke-miterlimit:10.43299961;stroke-opacity:1;stroke-dasharray:none;stroke-dashoffset:0" />
    <path
       d="m 2.2881048,-0.87226661 9.977e-4,2.422e-4 9.978e-4,2.139e-4 0.00107,1.924e-4 9.978e-4,1.713e-4 9.978e-4,1.494e-4 0.00107,1.211e-4 9.976e-4,1.071e-4 0.00107,9.24e-5 9.977e-4,7.84e-5 0.00107,5.7e-5 9.978e-4,5.01e-5 9.978e-4,2.84e-5 0.002,4.26e-5 0.002,1.44e-5 c 0.0159,0 0.03963,-5.842e-4 0.0429,-0.003706 0.00192,-0.001753 0.00306,-0.008333 0.00406,-0.01244 l 0.00228,-0.009729 h 0.00627 c -0.00114,0.01068 -0.00257,0.0237301 -0.00406,0.0333301 -0.00855,1.921e-4 -0.02387,7.767e-4 -0.03827,5.842e-4 -0.01746,-1.995e-4 -0.03022,-6.7e-4 -0.04227,-6.7e-4 -0.00663,0 -0.01147,4.705e-4 -0.01646,6.7e-4 v -0.004558 l 0.00599,-0.003093 c 0.00328,-0.001753 0.00485,-0.006199 0.00485,-0.01145 v -0.0920102 c 0,-0.007389 -3.563e-4,-0.01239 -0.00178,-0.01458 -0.00114,-0.001953 -0.00349,-0.00273 -0.00812,-0.002922 l -0.00933,-5.842e-4 v -0.005739 c 0.01012,3.916e-4 0.01924,6.699e-4 0.02872,6.699e-4 0.00898,0 0.01803,-2.783e-4 0.02815,-6.699e-4 v 0.005747 l -0.00933,5.842e-4 c -0.00463,1.925e-4 -0.00698,9.6921e-4 -0.00812,0.002922 -0.00135,0.002145 -0.00171,0.007184 -0.00171,0.01458 z"
       id="path8008"
       style="font-style:normal;font-variant:normal;font-weight:normal;font-stretch:normal;letter-spacing:normal;word-spacing:normal;text-anchor:start;fill:#000000;fill-opacity:1;fill-rule:nonzero;stroke:#000000;stroke-width:0;stroke-linecap:butt;stroke-linejoin:miter;stroke-miterlimit:10.43299961;stroke-opacity:1;stroke-dasharray:none;stroke-dashoffset:0" />
    <path
       d="m 1.4445011,-0.66662157 -0.00107,6.342e-4 -0.00114,6.129e-4 -0.00114,5.915e-4 -0.00121,5.772e-4 -0.00121,5.558e-4 -0.00128,5.345e-4 -0.00128,5.205e-4 -0.00135,4.9881e-4 -0.00271,9.408e-4 -0.00278,8.621e-4 -0.00285,7.841e-4 -0.00292,7.126e-4 -0.00285,6.273e-4 -0.00285,5.415e-4 -0.00285,4.6341e-4 -0.00278,3.846e-4 -0.00135,1.569e-4 -0.00135,1.424e-4 -0.00128,1.142e-4 -0.00128,9.97e-5 -0.00121,7.14e-5 -0.00121,5.71e-5 -0.00121,2.83e-5 -0.00114,1.44e-5 c -0.04655,0 -0.07786,-0.0266001 -0.07786,-0.0705702 0,-0.0222901 0.00868,-0.0399401 0.02354,-0.0521201 0.01456,-0.01199 0.03436,-0.01855 0.0561,-0.01855 0.01803,0 0.03549,0.004639 0.04483,0.007923 -0.00192,0.009111 -0.00371,0.0193701 -0.00371,0.0294701 h -0.00599 v -0.01396 c 0,-0.005419 -0.00777,-0.008705 -0.01667,-0.01203 -0.00627,-0.002116 -0.01461,-0.003285 -0.02173,-0.003285 -0.0365,0 -0.05571,0.0265201 -0.05571,0.0594701 0,0.0383801 0.02542,0.0631601 0.06383,0.0631601 0.01397,0 0.03051,-0.005049 0.03942,-0.01162 l 0.00171,0.001917 z"
       id="path8010"
       style="font-style:normal;font-variant:normal;font-weight:normal;font-stretch:normal;letter-spacing:normal;word-spacing:normal;text-anchor:start;fill:#000000;fill-opacity:1;fill-rule:nonzero;stroke:#000000;stroke-width:0;stroke-linecap:butt;stroke-linejoin:miter;stroke-miterlimit:10.43299961;stroke-opacity:1;stroke-dasharray:none;stroke-dashoffset:0" />
    <path
       d="m 1.5305993,-0.79743345 c -0.04511,0 -0.07305,0.0307901 -0.07305,0.0707301 0,0.0434601 0.02936,0.0705602 0.06877,0.0705602 l 0.0041,0 0.00392,-3.564e-4 0.00374,-3.563e-4 0.00374,-7.127e-4 0.00374,-8.9071e-4 0.00356,-8.909e-4 0.00356,-0.001247 0.00339,-0.001248 0.00339,-0.001603 0.00321,-0.001603 0.00321,-0.001782 0.00303,-0.00196 0.00285,-0.002138 0.00285,-0.002138 0.00267,-0.002316 0.00267,-0.002494 0.00249,-0.002672 0.00232,-0.002673 0.00214,-0.002851 0.00214,-0.002851 0.00178,-0.003207 0.00178,-0.003029 0.00178,-0.003207 0.00143,-0.003386 0.00125,-0.003385 0.00125,-0.003564 8.909e-4,-0.003563 8.908e-4,-0.003564 5.342e-4,-0.003742 5.342e-4,-0.003741 3.565e-4,-0.00392 0,-0.00392 c 0,-0.0430601 -0.02936,-0.0662801 -0.07091,-0.0662801 z m -0.00321,0.00821 0.00339,0 0.00321,3.5631e-4 0.00303,3.563e-4 0.00303,5.345e-4 0.00303,5.34e-4 0.00267,8.909e-4 0.00267,8.912e-4 0.00249,0.001069 0.00249,0.001247 0.00249,0.001247 0.00214,0.001425 0.00214,0.001604 0.00214,0.001782 0.00178,0.001782 0.00178,0.00196 0.00178,0.00196 0.0016,0.002138 0.0016,0.002316 0.00125,0.002495 0.00143,0.002316 0.00107,0.002673 0.00107,0.002672 0.00107,0.002851 8.909e-4,0.002851 7.126e-4,0.003029 7.127e-4,0.003029 5.343e-4,0.003207 5.342e-4,0.003207 3.563e-4,0.003385 1.78e-4,0.003385 1.778e-4,0.003385 0,0.003563 c 0,0.0356801 -0.01568,0.0609401 -0.0481,0.0609401 -0.03848,0 -0.05452,-0.0357201 -0.05452,-0.0696701 0,-0.0317801 0.0154,-0.0554101 0.04918,-0.0554101 z"
       id="path8012"
       style="font-style:normal;font-variant:normal;font-weight:normal;font-stretch:normal;letter-spacing:normal;word-spacing:normal;text-anchor:start;fill:#000000;fill-opacity:1;fill-rule:nonzero;stroke:#000000;stroke-width:0;stroke-linecap:butt;stroke-linejoin:miter;stroke-miterlimit:10.43299961;stroke-opacity:1;stroke-dasharray:none;stroke-dashoffset:0" />
    <path
       d="m 1.764211,-0.68307021 0,6.839e-4 0,6.699e-4 0,6.556e-4 0,6.4851e-4 7.13e-5,6.273e-4 0,6.129e-4 0,6.059e-4 0,5.841e-4 7.12e-5,5.702e-4 0,5.633e-4 0,5.4141e-4 7.13e-5,5.275e-4 0,5.131e-4 7.13e-5,4.988e-4 7.13e-5,4.849e-4 0,4.703e-4 7.12e-5,4.488e-4 7.12e-5,4.421e-4 7.14e-5,4.204e-4 0,4.064e-4 7.12e-5,3.916e-4 7.13e-5,3.7061e-4 7.13e-5,3.637e-4 1.425e-4,3.42e-4 7.13e-5,3.206e-4 7.13e-5,3.136e-4 7.12e-5,2.923e-4 1.425e-4,2.779e-4 7.13e-5,2.566e-4 1.425e-4,2.496e-4 1.426e-4,2.209e-4 7.13e-5,2.138e-4 c 0.00121,0.001917 0.00356,0.002701 0.0082,0.002893 l 0.00933,5.846e-4 v 0.005788 c -0.01012,-3.92e-4 -0.01924,-6.983e-4 -0.02815,-6.983e-4 -0.00948,0 -0.0186,3.063e-4 -0.02594,6.983e-4 v -0.005788 l 0.00656,-5.846e-4 c 0.00463,-3.921e-4 0.00698,-9.762e-4 0.00812,-0.002893 0.00135,-0.002145 0.00178,-0.007225 0.00178,-0.01458 v -0.0882802 H 1.745394 c -0.00292,0.005255 -0.00563,0.01068 -0.00812,0.01593 l -0.03449,0.0733502 c -0.00363,0.007964 -0.00698,0.01651 -0.01047,0.0246301 H 1.688464 L 1.6347917,-0.7713219 H 1.634364 v 0.0882502 c 0,0.007389 4.277e-4,0.01244 0.00178,0.01458 0.00114,0.001917 0.00349,0.002501 0.00812,0.002893 l 0.00855,5.846e-4 v 0.005788 c -0.00855,-1.996e-4 -0.01554,-6.983e-4 -0.02331,-6.983e-4 -0.00698,0 -0.01475,4.987e-4 -0.02252,6.983e-4 v -0.005788 l 0.00855,-5.846e-4 c 0.00463,-3.92e-4 0.00698,-9.762e-4 0.00812,-0.002893 0.00135,-0.002145 0.00178,-0.007225 0.00178,-0.01458 v -0.0872702 c 0,-0.007389 -4.276e-4,-0.01244 -0.00178,-0.01458 -0.00114,-0.001924 -0.00349,-0.002508 -0.00813,-0.002893 l -0.00855,-5.842e-4 v -0.005788 c 0.00606,1.925e-4 0.01226,6.7001e-4 0.01846,6.7001e-4 0.0062,0 0.0124,-4.7751e-4 0.01846,-6.7001e-4 l 0.0511,0.10801323 0.05081,-0.10801323 c 0.0062,1.925e-4 0.01219,6.7001e-4 0.01838,6.7001e-4 0.0062,0 0.0124,-4.7751e-4 0.01803,-6.7001e-4 v 0.005788 l -0.00812,5.842e-4 c -0.00463,3.851e-4 -0.00698,9.693e-4 -0.0082,0.002894 -0.00128,0.002145 -0.00171,0.007225 -0.00171,0.01458 z"
       id="path8016"
       style="font-style:normal;font-variant:normal;font-weight:normal;font-stretch:normal;letter-spacing:normal;word-spacing:normal;text-anchor:start;fill:#000000;fill-opacity:1;fill-rule:nonzero;stroke:#000000;stroke-width:0;stroke-linecap:butt;stroke-linejoin:miter;stroke-miterlimit:10.43299961;stroke-opacity:1;stroke-dasharray:none;stroke-dashoffset:0" />
    <path
       d="m 1.8313458,-0.68309901 0,6.843e-4 0,6.769e-4 0,6.63e-4 0,6.4121e-4 0,6.342e-4 7.13e-5,6.129e-4 0,6.06e-4 0,5.845e-4 0,5.772e-4 7.13e-5,5.558e-4 0,5.4881e-4 7.13e-5,5.275e-4 0,5.132e-4 7.12e-5,4.988e-4 0,4.843e-4 7.14e-5,4.705e-4 7.12e-5,4.561e-4 7.12e-5,4.347e-4 0,4.278e-4 7.13e-5,4.064e-4 7.13e-5,3.846e-4 7.12e-5,3.7761e-4 7.13e-5,3.564e-4 1.426e-4,3.493e-4 7.12e-5,3.206e-4 7.13e-5,3.136e-4 1.425e-4,2.923e-4 7.13e-5,2.779e-4 7.12e-5,2.566e-4 1.426e-4,2.496e-4 1.425e-4,2.209e-4 1.426e-4,2.138e-4 c 0.00114,0.001917 0.00342,0.002701 0.00812,0.002893 l 0.00933,5.846e-4 v 0.005788 c -0.01012,-3.92e-4 -0.01924,-6.983e-4 -0.02815,-6.983e-4 -0.00948,0 -0.0186,3.063e-4 -0.02872,6.983e-4 v -0.005788 l 0.00933,-5.846e-4 c 0.00463,-1.926e-4 0.00698,-9.762e-4 0.00812,-0.002893 0.00135,-0.002145 0.00178,-0.007225 0.00178,-0.01461 v -0.0872702 c 0,-0.006773 -5.702e-4,-0.01223 -0.002,-0.01416 -0.00135,-0.001953 -0.00349,-0.002901 -0.00834,-0.003286 l -0.0087,-5.842e-4 v -0.005747 c 0.01283,1.921e-4 0.02387,6.4121e-4 0.03486,6.4121e-4 0.01133,0 0.02252,-4.4911e-4 0.03299,-6.4121e-4 0.01882,-3.92e-4 0.04005,0.007759 0.04005,0.0296801 0,0.02422 -0.02081,0.0417101 -0.04647,0.0417101 -0.00385,0 -0.00777,-3.916e-4 -0.01162,-0.001169 l -0.00192,-0.00702 c 0.00428,0.001368 0.00855,0.001953 0.01276,0.001953 0.01575,0 0.02794,-0.01244 0.02794,-0.0289001 0,-0.02016 -0.01219,-0.0288601 -0.03136,-0.0288601 -0.00876,0 -0.0144,9.766e-4 -0.01981,0.002338 z"
       id="path8018"
       style="font-style:normal;font-variant:normal;font-weight:normal;font-stretch:normal;letter-spacing:normal;word-spacing:normal;text-anchor:start;fill:#000000;fill-opacity:1;fill-rule:nonzero;stroke:#000000;stroke-width:0;stroke-linecap:butt;stroke-linejoin:miter;stroke-miterlimit:10.43299961;stroke-opacity:1;stroke-dasharray:none;stroke-dashoffset:0" />
    <path
       d="m 1.9214291,-0.7703743 0,-6.84e-4 0,-6.699e-4 0,-6.63e-4 0,-6.412e-4 0,-6.272e-4 -7.13e-5,-6.129e-4 0,-6.0591e-4 0,-5.842e-4 0,-5.702e-4 -7.12e-5,-5.558e-4 0,-5.419e-4 -7.13e-5,-5.275e-4 0,-5.132e-4 -7.13e-5,-4.987e-4 0,-4.774e-4 -7.13e-5,-4.7041e-4 -7.12e-5,-4.492e-4 -7.13e-5,-4.417e-4 -7.13e-5,-4.204e-4 0,-3.994e-4 -7.12e-5,-3.916e-4 -7.12e-5,-3.707e-4 -1.426e-4,-3.637e-4 -7.13e-5,-3.419e-4 -7.12e-5,-3.207e-4 -7.14e-5,-3.136e-4 -1.424e-4,-2.923e-4 -7.13e-5,-2.709e-4 -1.426e-4,-2.6351e-4 -7.12e-5,-2.422e-4 -1.426e-4,-2.282e-4 -1.425e-4,-2.066e-4 c -0.00114,-0.001924 -0.00349,-0.002701 -0.00812,-0.002894 l -0.00926,-5.842e-4 v -0.005788 c 0.01005,3.92e-4 0.01917,6.6991e-4 0.02865,6.6991e-4 0.00891,0 0.01803,-2.7791e-4 0.02815,-6.6991e-4 v 0.005788 l -0.00933,5.842e-4 c -0.00463,1.925e-4 -0.00698,9.692e-4 -0.00812,0.002894 -0.00135,0.002145 -0.00178,0.007184 -0.00178,0.01458 v 0.0667002 c 0,0.0275501 0.0144,0.0355101 0.03998,0.0355101 0.02096,0 0.04005,-0.007964 0.04005,-0.0401501 v -0.0620501 c 0,-0.007389 -4.276e-4,-0.01239 -0.00178,-0.01458 -0.00121,-0.001924 -0.00349,-0.002509 -0.0082,-0.002894 l -0.00855,-5.842e-4 v -0.005788 c 0.00784,1.925e-4 0.01554,6.6991e-4 0.02252,6.6991e-4 0.00777,0 0.01482,-4.7741e-4 0.02331,-6.6991e-4 v 0.005788 l -0.00849,5.842e-4 c -0.0047,3.851e-4 -0.00706,9.692e-4 -0.00812,0.002894 -0.00143,0.002145 -0.00178,0.007184 -0.00178,0.01458 v 0.0560401 c 0,0.0415001 -0.01575,0.0582401 -0.05495,0.0582401 -0.03299,0 -0.05238,-0.009932 -0.05238,-0.0454401 z"
       id="path8020"
       style="font-style:normal;font-variant:normal;font-weight:normal;font-stretch:normal;letter-spacing:normal;word-spacing:normal;text-anchor:start;fill:#000000;fill-opacity:1;fill-rule:nonzero;stroke:#000000;stroke-width:0;stroke-linecap:butt;stroke-linejoin:miter;stroke-miterlimit:10.43299961;stroke-opacity:1;stroke-dasharray:none;stroke-dashoffset:0" />
    <path
       d="m 2.1004551,-0.76514328 0,-0.001368 0,-0.00134 -7.12e-5,-0.001319 0,-0.001297 0,-0.001269 -7.12e-5,-0.001254 0,-0.001226 -7.14e-5,-0.001212 0,-0.00119 -7.12e-5,-0.001176 -7.12e-5,-0.001162 -7.13e-5,-0.00114 -7.14e-5,-0.001133 -7.12e-5,-0.001112 -2.138e-4,-0.002202 h -0.02993 c -0.00585,0 -0.00741,0.001725 -0.00777,0.006404 l -7.839e-4,0.01531 h -0.00606 c 0,-0.01046 -4.275e-4,-0.02114 -0.00143,-0.0312401 0.01404,0 0.02793,5.8461e-4 0.0419,5.8461e-4 h 0.02808 c 0.01397,0 0.02787,-5.8461e-4 0.0419,-5.8461e-4 -9.978e-4,0.01014 -0.00143,0.0208101 -0.00143,0.0312401 h -0.00606 l -7.84e-4,-0.01531 c -3.521e-4,-0.00468 -0.00192,-0.006404 -0.00776,-0.006404 h -0.02993 c -5.701e-4,0.005829 -7.839e-4,0.01203 -7.839e-4,0.0194201 v 0.0821002 c 0,0.007389 4.275e-4,0.01239 0.00178,0.01458 0.00114,0.001945 0.00342,0.002701 0.00812,0.002893 l 0.00926,5.846e-4 v 0.005788 c -0.01005,-3.92e-4 -0.01917,-6.982e-4 -0.02808,-6.982e-4 -0.00948,0 -0.0186,3.062e-4 -0.02865,6.982e-4 v -0.005793 l 0.00926,-5.846e-4 c 0.0047,-1.925e-4 0.00698,-9.479e-4 0.00812,-0.002893 0.00135,-0.002145 0.00178,-0.007184 0.00178,-0.01458 z"
       id="path8022"
       style="font-style:normal;font-variant:normal;font-weight:normal;font-stretch:normal;letter-spacing:normal;word-spacing:normal;text-anchor:start;fill:#000000;fill-opacity:1;fill-rule:nonzero;stroke:#000000;stroke-width:0;stroke-linecap:butt;stroke-linejoin:miter;stroke-miterlimit:10.43299961;stroke-opacity:1;stroke-dasharray:none;stroke-dashoffset:0" />
    <path
       d="m 2.2138432,-0.68307021 0,6.839e-4 0,6.699e-4 0,6.556e-4 0,6.4851e-4 0,6.273e-4 0,6.129e-4 7.12e-5,6.059e-4 0,5.841e-4 0,5.702e-4 7.13e-5,5.633e-4 0,5.4141e-4 7.13e-5,5.275e-4 0,5.131e-4 7.13e-5,4.988e-4 0,4.849e-4 7.12e-5,4.703e-4 7.13e-5,4.488e-4 7.13e-5,4.421e-4 0,4.204e-4 7.12e-5,4.064e-4 7.13e-5,3.916e-4 7.13e-5,3.7061e-4 7.12e-5,3.637e-4 1.426e-4,3.42e-4 7.13e-5,3.206e-4 7.12e-5,3.136e-4 7.13e-5,2.923e-4 1.425e-4,2.779e-4 7.13e-5,2.566e-4 1.425e-4,2.496e-4 1.425e-4,2.209e-4 7.13e-5,2.138e-4 c 0.00121,0.001917 0.00349,0.002701 0.0082,0.002893 l 0.00926,5.846e-4 v 0.005788 c -0.01005,-3.92e-4 -0.01917,-6.983e-4 -0.02808,-6.983e-4 -0.00948,0 -0.0186,3.063e-4 -0.02872,6.983e-4 v -0.005788 l 0.00933,-5.846e-4 c 0.00463,-1.926e-4 0.00698,-9.762e-4 0.00812,-0.002893 0.00135,-0.002145 0.00178,-0.007225 0.00178,-0.01458 v -0.0872702 c 0,-0.007389 -4.275e-4,-0.01244 -0.00178,-0.01458 -0.00114,-0.001924 -0.00349,-0.002701 -0.00812,-0.002894 l -0.00933,-5.84e-4 v -0.005788 c 0.01012,3.92e-4 0.01924,6.6991e-4 0.02872,6.6991e-4 0.00891,0 0.01803,-2.7791e-4 0.02808,-6.6991e-4 v 0.005788 l -0.00926,5.84e-4 c -0.0047,1.926e-4 -0.00698,9.693e-4 -0.0082,0.002894 -0.00128,0.002145 -0.00171,0.007225 -0.00171,0.01458 z"
       id="path8024"
       style="font-style:normal;font-variant:normal;font-weight:normal;font-stretch:normal;letter-spacing:normal;word-spacing:normal;text-anchor:start;fill:#000000;fill-opacity:1;fill-rule:nonzero;stroke:#000000;stroke-width:0;stroke-linecap:butt;stroke-linejoin:miter;stroke-miterlimit:10.43299961;stroke-opacity:1;stroke-dasharray:none;stroke-dashoffset:0" />
    <path
       d="m 2.2632322,-0.7703743 0,-6.84e-4 0,-6.699e-4 0,-6.63e-4 -7.13e-5,-6.412e-4 0,-6.272e-4 0,-6.129e-4 0,-6.0591e-4 0,-5.842e-4 -7.13e-5,-5.702e-4 0,-5.558e-4 -7.13e-5,-5.419e-4 0,-5.275e-4 -7.12e-5,-5.132e-4 0,-4.987e-4 -7.13e-5,-4.774e-4 0,-4.7041e-4 -7.13e-5,-4.492e-4 -7.12e-5,-4.417e-4 -7.12e-5,-4.204e-4 -7.14e-5,-3.994e-4 -7.12e-5,-3.916e-4 -7.13e-5,-3.707e-4 -7.12e-5,-3.637e-4 -7.14e-5,-3.419e-4 -7.12e-5,-3.207e-4 -7.12e-5,-3.136e-4 -1.426e-4,-2.923e-4 -7.13e-5,-2.709e-4 -1.425e-4,-2.6351e-4 -7.13e-5,-2.422e-4 -1.425e-4,-2.282e-4 -1.426e-4,-2.066e-4 c -0.00114,-0.001924 -0.00349,-0.002509 -0.00812,-0.002894 l -0.00855,-5.842e-4 v -0.005788 c 0.00855,1.925e-4 0.01632,6.6991e-4 0.02331,6.6991e-4 0.00349,0 0.00698,-4.7741e-4 0.01047,-6.6991e-4 l 0.09258,0.11444925 h 5.701e-4 v -0.0906202 c 0,-0.007389 -4.276e-4,-0.01239 -0.00178,-0.01458 -0.00114,-0.001924 -0.00349,-0.002509 -0.00812,-0.002894 l -0.00848,-5.842e-4 v -0.005788 c 0.0077,1.925e-4 0.01546,6.6991e-4 0.02245,6.6991e-4 0.00777,0 0.01475,-4.7741e-4 0.02323,-6.6991e-4 v 0.005788 l -0.00848,5.842e-4 c -0.00463,3.85e-4 -0.00698,9.692e-4 -0.00812,0.002894 -0.00143,0.002145 -0.00178,0.007184 -0.00178,0.01458 v 0.10712223 c 0,0.002309 3.563e-4,0.004844 5.701e-4,0.007184 l -0.01746,-0.003122 -0.09122,-0.11349324 h -3.564e-4 v 0.0896102 c 0,0.007389 3.564e-4,0.01244 0.00178,0.01458 0.00114,0.001917 0.00349,0.002501 0.00812,0.002893 l 0.00848,5.846e-4 v 0.005788 c -0.00848,-1.995e-4 -0.01546,-6.983e-4 -0.02323,-6.983e-4 -0.00698,0 -0.01475,4.988e-4 -0.02252,6.983e-4 v -0.005788 l 0.00855,-5.846e-4 c 0.00463,-3.921e-4 0.00698,-9.762e-4 0.00812,-0.002893 0.00135,-0.002145 0.00178,-0.007225 0.00178,-0.01458 z"
       id="path8026"
       style="font-style:normal;font-variant:normal;font-weight:normal;font-stretch:normal;letter-spacing:normal;word-spacing:normal;text-anchor:start;fill:#000000;fill-opacity:1;fill-rule:nonzero;stroke:#000000;stroke-width:0;stroke-linecap:butt;stroke-linejoin:miter;stroke-miterlimit:10.43299961;stroke-opacity:1;stroke-dasharray:none;stroke-dashoffset:0" />
    <path
       d="m 2.5090367,-0.69846434 0,-4.134e-4 0,-3.99e-4 0,-3.85e-4 -7.12e-5,-3.7081e-4 0,-3.488e-4 -7.13e-5,-3.424e-4 -7.13e-5,-3.276e-4 -7.12e-5,-3.137e-4 -7.13e-5,-2.992e-4 -1.425e-4,-2.853e-4 -1.425e-4,-2.705e-4 -7.14e-5,-2.64e-4 -1.425e-4,-2.491e-4 -2.138e-4,-2.283e-4 -1.425e-4,-2.282e-4 -1.425e-4,-2.066e-4 -2.139e-4,-1.994e-4 -2.138e-4,-1.852e-4 -2.137e-4,-1.782e-4 -2.851e-4,-1.641e-4 -2.851e-4,-1.495e-4 -2.138e-4,-1.428e-4 -3.564e-4,-1.2811e-4 -2.85e-4,-1.211e-4 -3.564e-4,-1.072e-4 -3.563e-4,-9.97e-5 -3.564e-4,-8.54e-5 -3.563e-4,-8.54e-5 -4.276e-4,-6.45e-5 -4.276e-4,-6.4e-5 -4.276e-4,-4.97e-5 -4.277e-4,-3.57e-5 -0.01618,-0.001369 v -0.005829 c 0.00798,1.925e-4 0.01596,4.417e-4 0.02373,4.417e-4 0.00791,0 0.01582,-2.492e-4 0.02373,-4.417e-4 l 7.839e-4,0.004844 -0.00563,0.001953 c -0.00214,7.768e-4 -0.00214,0.001561 -0.00214,0.007184 v 0.0325501 c -0.01654,0.004803 -0.03755,0.009814 -0.05095,0.009814 -0.04333,0 -0.07818,-0.0224501 -0.07818,-0.0711302 0,-0.0426501 0.03507,-0.0701501 0.08188,-0.0701501 0.02416,0 0.03927,0.005419 0.04818,0.007923 -0.00228,0.009111 -0.00385,0.0194201 -0.00385,0.0294701 h -0.00606 v -0.01026 c 0,-0.009112 -0.00698,-0.01223 -0.01611,-0.01552 -0.0062,-0.002117 -0.01461,-0.003485 -0.02722,-0.003485 -0.03692,0 -0.05616,0.0242601 -0.05616,0.0587801 0,0.0385901 0.02252,0.0663101 0.06257,0.0663101 0.01497,0 0.02601,-0.003285 0.02722,-0.006773 7.84e-4,-0.002117 9.265e-4,-0.003093 9.265e-4,-0.007923 z"
       id="path8028"
       style="font-style:normal;font-variant:normal;font-weight:normal;font-stretch:normal;letter-spacing:normal;word-spacing:normal;text-anchor:start;fill:#000000;fill-opacity:1;fill-rule:nonzero;stroke:#000000;stroke-width:0;stroke-linecap:butt;stroke-linejoin:miter;stroke-miterlimit:10.43299961;stroke-opacity:1;stroke-dasharray:none;stroke-dashoffset:0" />
    <path
       d="m 1.4356638,-0.49507301 0,-4.106e-4 0,-3.956e-4 0,-3.81e-4 -7.12e-5,-3.678e-4 0,-3.531e-4 -7.13e-5,-3.399e-4 -7.13e-5,-3.255e-4 -7.12e-5,-3.124e-4 -7.13e-5,-2.9931e-4 -1.425e-4,-2.857e-4 -7.13e-5,-2.73e-4 -1.426e-4,-2.598e-4 -1.425e-4,-2.484e-4 -1.425e-4,-2.352e-4 -2.138e-4,-2.229e-4 -1.426e-4,-2.11e-4 -2.138e-4,-1.987e-4 -2.138e-4,-1.868e-4 -2.138e-4,-1.76e-4 -2.851e-4,-1.638e-4 -2.138e-4,-1.532e-4 -2.851e-4,-1.42e-4 -3.563e-4,-1.31e-4 -2.851e-4,-1.207e-4 -3.562e-4,-1.104e-4 -2.851e-4,-9.89e-5 -4.277e-4,-8.99e-5 -3.563e-4,-7.92e-5 -4.276e-4,-6.98e-5 -4.277e-4,-6e-5 -4.275e-4,-5.05e-5 -4.277e-4,-4.06e-5 -0.01618,-0.001336 v -0.005829 c 0.00798,1.95e-4 0.01596,4.175e-4 0.02373,4.175e-4 0.00791,0 0.01582,-2.225e-4 0.02373,-4.175e-4 l 7.839e-4,0.004844 -0.00563,0.001922 c -0.00214,7.787e-4 -0.00214,0.001558 -0.00214,0.007184 v 0.0325501 c -0.01654,0.004803 -0.03755,0.009814 -0.05095,0.009814 -0.0433,0 -0.07815,-0.0224501 -0.07815,-0.0711002 0,-0.0426701 0.03505,-0.0701502 0.08185,-0.0701502 0.02416,0 0.03927,0.005378 0.04825,0.007882 -0.00235,0.009111 -0.00392,0.01942 -0.00392,0.0294701 h -0.00606 v -0.01026 c 0,-0.009111 -0.00698,-0.01223 -0.01611,-0.01552 -0.0062,-0.002145 -0.01454,-0.003514 -0.02722,-0.003514 -0.0369,0 -0.05614,0.0242601 -0.05614,0.0588001 0,0.0385901 0.02252,0.0663201 0.06255,0.0663201 0.01497,0 0.02601,-0.003313 0.02722,-0.006773 7.84e-4,-0.002144 9.265e-4,-0.00309 9.265e-4,-0.007964 z"
       id="path8030"
       style="font-style:normal;font-variant:normal;font-weight:normal;font-stretch:normal;letter-spacing:normal;word-spacing:normal;text-anchor:start;fill:#000000;fill-opacity:1;fill-rule:nonzero;stroke:#000000;stroke-width:0;stroke-linecap:butt;stroke-linejoin:miter;stroke-miterlimit:10.43299961;stroke-opacity:1;stroke-dasharray:none;stroke-dashoffset:0" />
    <path
       d="m 1.5026561,-0.47967858 0,6.8811e-4 0,6.731e-4 0,6.593e-4 0,6.449e-4 7.13e-5,6.31e-4 0,6.166e-4 0,6.022e-4 0,5.8701e-4 7.13e-5,5.731e-4 0,5.579e-4 0,5.439e-4 7.13e-5,5.279e-4 0,5.132e-4 7.12e-5,4.983e-4 7.13e-5,4.832e-4 0,4.676e-4 7.13e-5,4.5231e-4 7.12e-5,4.372e-4 7.13e-5,4.212e-4 7.12e-5,4.051e-4 0,3.892e-4 1.426e-4,3.744e-4 7.13e-5,3.575e-4 7.13e-5,3.416e-4 7.12e-5,3.255e-4 7.13e-5,3.096e-4 1.426e-4,2.923e-4 7.12e-5,2.762e-4 7.12e-5,2.603e-4 1.426e-4,2.43e-4 1.425e-4,2.2581e-4 7.13e-5,2.097e-4 c 0.00121,0.001948 0.00356,0.002728 0.00812,0.002923 l 0.00933,5.845e-4 v 0.005747 c -0.01005,-3.8991e-4 -0.01917,-6.6831e-4 -0.02808,-6.6831e-4 -0.00948,0 -0.0186,2.784e-4 -0.02872,6.6831e-4 v -0.005747 l 0.00933,-5.845e-4 c 0.00463,-1.955e-4 0.00698,-9.75e-4 0.00812,-0.002923 0.00135,-0.002144 0.00178,-0.007184 0.00178,-0.01458 v -0.0872702 c 0,-0.007389 -4.276e-4,-0.01239 -0.00178,-0.01458 -0.00114,-0.001953 -0.00349,-0.002537 -0.00812,-0.002922 l -0.00798,-5.845e-4 v -0.005745 c 0.01033,1.921e-4 0.02159,6.128e-4 0.03299,6.128e-4 0.0114,0 0.02266,-4.207e-4 0.03385,-6.128e-4 0.03093,-5.846e-4 0.03906,0.01511 0.03906,0.0291001 0,0.02114 -0.01896,0.0337801 -0.0377,0.0374401 l 0.0439,0.0575701 c 0.00292,0.003897 0.0072,0.00468 0.01183,0.005049 v 0.005747 c -0.00499,-1.9501e-4 -0.00948,-6.6831e-4 -0.01397,-6.6831e-4 -0.00442,0 -0.0087,4.733e-4 -0.01311,6.6831e-4 -0.00249,-0.003647 -0.00541,-0.006938 -0.00798,-0.01042 l -0.03557,-0.0480201 c -0.00306,-0.004269 -0.00677,-0.008005 -0.01005,-0.01207 l 0.00114,-0.002309 c 0.0052,3.921e-4 0.01126,1.926e-4 0.01703,-7.767e-4 0.01354,-0.002345 0.02516,-0.01281 0.02516,-0.0271701 0,-0.02094 -0.01546,-0.0267701 -0.03057,-0.0267701 -0.0087,0 -0.01432,9.7621e-4 -0.01974,0.002338 z"
       id="path8032"
       style="font-style:normal;font-variant:normal;font-weight:normal;font-stretch:normal;letter-spacing:normal;word-spacing:normal;text-anchor:start;fill:#000000;fill-opacity:1;fill-rule:nonzero;stroke:#000000;stroke-width:0;stroke-linecap:butt;stroke-linejoin:miter;stroke-miterlimit:10.43299961;stroke-opacity:1;stroke-dasharray:none;stroke-dashoffset:0" />
    <path
       d="m 1.6578143,-0.59396082 c -0.04511,0 -0.07305,0.0307901 -0.07305,0.0707301 0,0.0434301 0.02947,0.0705601 0.06895,0.0705601 l 0.00392,-1.778e-4 0.00392,-1.777e-4 0.00392,-5.345e-4 0.00374,-5.341e-4 0.00356,-8.907e-4 0.00374,-0.001069 0.00339,-0.001069 0.00356,-0.001426 0.00321,-0.001425 0.00339,-0.001603 0.00303,-0.00196 0.00321,-0.001782 0.00285,-0.002138 0.00285,-0.002317 0.00267,-0.002317 0.00249,-0.002494 0.00249,-0.002494 0.00232,-0.002851 0.00232,-0.002672 0.00196,-0.003029 0.00196,-0.003029 0.00178,-0.003207 0.0016,-0.003207 0.00143,-0.003207 0.00143,-0.003563 0.00107,-0.003386 0.00107,-0.003563 7.126e-4,-0.003742 7.127e-4,-0.003564 3.564e-4,-0.00392 3.564e-4,-0.003742 0,-0.00392 c 0,-0.0430401 -0.0293,-0.0662801 -0.07091,-0.0662801 z m -0.00321,0.008005 0.00339,1.781e-4 0.00321,1.778e-4 0.00321,3.563e-4 0.00303,5.345e-4 0.00285,7.126e-4 0.00285,7.127e-4 0.00249,0.001069 0.00267,8.907e-4 0.00249,0.001247 0.00232,0.001426 0.00232,0.001425 0.00214,0.001603 0.00196,0.001603 0.00196,0.001782 0.00178,0.00196 0.00178,0.002138 0.0016,0.002138 0.00143,0.002316 0.00143,0.002316 0.00125,0.002495 0.00125,0.002672 0.00107,0.002672 8.909e-4,0.002673 8.909e-4,0.003029 7.127e-4,0.002851 7.126e-4,0.003207 7.127e-4,0.003029 3.563e-4,0.003207 3.564e-4,0.003386 3.564e-4,0.003385 0,0.003564 0,0.003564 c 0,0.0356801 -0.01568,0.0609401 -0.0481,0.0609401 -0.03848,0 -0.05452,-0.0357201 -0.05452,-0.0696702 0,-0.0318201 0.0154,-0.0555901 0.04918,-0.0555901 z"
       id="path8034"
       style="font-style:normal;font-variant:normal;font-weight:normal;font-stretch:normal;letter-spacing:normal;word-spacing:normal;text-anchor:start;fill:#000000;fill-opacity:1;fill-rule:nonzero;stroke:#000000;stroke-width:0;stroke-linecap:butt;stroke-linejoin:miter;stroke-miterlimit:10.43299961;stroke-opacity:1;stroke-dasharray:none;stroke-dashoffset:0" />
    <path
       d="m 1.7527368,-0.56698136 0,-6.843e-4 0,-6.7e-4 0,-6.6261e-4 0,-6.416e-4 -7.13e-5,-6.272e-4 0,-6.129e-4 0,-5.985e-4 0,-5.916e-4 -7.12e-5,-5.702e-4 0,-5.558e-4 0,-5.4151e-4 -7.13e-5,-5.275e-4 0,-5.131e-4 -7.13e-5,-4.918e-4 -7.12e-5,-4.844e-4 0,-4.635e-4 -7.12e-5,-4.561e-4 -7.14e-5,-4.346e-4 -7.13e-5,-4.204e-4 -7.12e-5,-3.9941e-4 -7.12e-5,-3.916e-4 -7.14e-5,-3.707e-4 -7.12e-5,-3.564e-4 -7.12e-5,-3.423e-4 -7.13e-5,-3.206e-4 -7.13e-5,-3.062e-4 -1.425e-4,-2.923e-4 -7.13e-5,-2.779e-4 -1.425e-4,-2.566e-4 -7.13e-5,-2.423e-4 -1.426e-4,-2.212e-4 -1.424e-4,-2.065e-4 c -0.00114,-0.001953 -0.00349,-0.002729 -0.00812,-0.002922 l -0.00933,-5.846e-4 v -0.005747 c 0.01012,3.92e-4 0.01924,6.699e-4 0.02872,6.699e-4 0.00891,0 0.01803,-2.779e-4 0.02815,-6.699e-4 v 0.005747 l -0.00933,5.846e-4 c -0.00463,1.926e-4 -0.00698,9.693e-4 -0.00812,0.002922 -0.00135,0.002117 -0.00178,0.007143 -0.00178,0.01453 v 0.0667101 c 0,0.0275501 0.0144,0.0355101 0.03998,0.0355101 0.02096,0 0.03998,-0.007923 0.03998,-0.0401501 v -0.0620501 c 0,-0.007389 -3.564e-4,-0.01239 -0.00171,-0.01453 -0.00121,-0.001953 -0.00349,-0.002537 -0.0082,-0.002922 l -0.00848,-5.846e-4 v -0.005747 c 0.00777,1.925e-4 0.01546,6.699e-4 0.02252,6.699e-4 0.00777,0 0.01468,-4.774e-4 0.02323,-6.699e-4 v 0.005747 l -0.00855,5.846e-4 c -0.00463,3.846e-4 -0.00691,9.691e-4 -0.00812,0.002922 -0.00135,0.002116 -0.00171,0.007143 -0.00171,0.01453 v 0.0560401 c 0,0.0415001 -0.01575,0.0582401 -0.05495,0.0582401 -0.03299,0 -0.05238,-0.009932 -0.05238,-0.0454401 z"
       id="path8038"
       style="font-style:normal;font-variant:normal;font-weight:normal;font-stretch:normal;letter-spacing:normal;word-spacing:normal;text-anchor:start;fill:#000000;fill-opacity:1;fill-rule:nonzero;stroke:#000000;stroke-width:0;stroke-linecap:butt;stroke-linejoin:miter;stroke-miterlimit:10.43299961;stroke-opacity:1;stroke-dasharray:none;stroke-dashoffset:0" />
    <path
       d="m 1.9241373,-0.47967858 0,6.8521e-4 0,6.711e-4 0,6.58e-4 0,6.433e-4 0,6.294e-4 0,6.157e-4 7.13e-5,6.01e-4 0,5.8701e-4 0,5.723e-4 7.12e-5,5.582e-4 0,5.432e-4 7.13e-5,5.287e-4 0,5.131e-4 7.13e-5,4.988e-4 0,4.84e-4 7.12e-5,4.684e-4 7.13e-5,4.5231e-4 0,4.377e-4 7.12e-5,4.219e-4 7.13e-5,4.06e-4 7.13e-5,3.909e-4 7.13e-5,3.748e-4 7.12e-5,3.583e-4 7.13e-5,3.428e-4 7.13e-5,3.259e-4 1.425e-4,3.1e-4 7.13e-5,2.935e-4 1.425e-4,2.77e-4 7.13e-5,2.603e-4 1.425e-4,2.43e-4 7.13e-5,2.2671e-4 1.425e-4,2.097e-4 c 0.00121,0.001948 0.00349,0.002728 0.00812,0.002923 l 0.00933,5.845e-4 v 0.005747 c -0.01005,-3.8991e-4 -0.01917,-6.6831e-4 -0.02815,-6.6831e-4 -0.00948,0 -0.0186,2.784e-4 -0.02865,6.6831e-4 v -0.005747 l 0.00926,-5.845e-4 c 0.0047,-1.955e-4 0.00706,-9.75e-4 0.0082,-0.002923 0.00135,-0.002144 0.00171,-0.007225 0.00171,-0.01458 v -0.0872702 c 0,-0.006773 -5.701e-4,-0.01223 -0.00192,-0.01416 -0.00135,-0.001953 -0.00349,-0.00293 -0.00834,-0.003314 l -0.00876,-5.846e-4 v -0.005747 c 0.01283,1.921e-4 0.02387,6.129e-4 0.03492,6.129e-4 0.01126,0 0.02252,-4.208e-4 0.03299,-6.129e-4 0.01882,-3.92e-4 0.04005,0.007759 0.04005,0.0296401 0,0.02422 -0.02088,0.0417301 -0.04647,0.0417301 -0.00385,0 -0.00777,-3.896e-4 -0.01162,-0.001196 l -0.00192,-0.006979 c 0.00428,0.001339 0.00848,0.001924 0.01276,0.001924 0.01575,0 0.02793,-0.01239 0.02793,-0.0288601 0,-0.02015 -0.01219,-0.0289001 -0.03143,-0.0289001 -0.0087,0 -0.01432,9.7621e-4 -0.01974,0.002337 z"
       id="path8040"
       style="font-style:normal;font-variant:normal;font-weight:normal;font-stretch:normal;letter-spacing:normal;word-spacing:normal;text-anchor:start;fill:#000000;fill-opacity:1;fill-rule:nonzero;stroke:#000000;stroke-width:0;stroke-linecap:butt;stroke-linejoin:miter;stroke-miterlimit:10.43299961;stroke-opacity:1;stroke-dasharray:none;stroke-dashoffset:0" />
  </g>
  <g
     transform="translate(-0.64286619,1.0928398)"
     id="layer1"
     style="display:inline">
    <polygon
       points="40.945,0.61719 13.793,0.61719 13.793,0.61719 81.605,82.367 "
       transform="matrix(0.00712684,0,0,-0.00712684,0.68428152,-0.45267412)"
       id="polygon7988"
       style="font-style:normal;font-variant:normal;font-weight:normal;font-stretch:normal;letter-spacing:normal;word-spacing:normal;text-anchor:start;fill:#f6c967;fill-opacity:1;fill-rule:nonzero;stroke:#f6c967;stroke-width:0;stroke-linecap:butt;stroke-linejoin:miter;stroke-miterlimit:10.43299961;stroke-opacity:1;stroke-dasharray:none;stroke-dashoffset:0" />
  </g>
  <g
     transform="translate(-0.64286619,1.0928398)"
     id="g5251"
     style="display:inline">
    <g
       transform="matrix(10.000021,0,0,10.000021,-3.5315016,-5.7483737)"
       id="g5621">
      <path
         d="m 317.61787,351.64402 a 5.4180632,4.6815901 0 1 1 -6e-4,-0.01"
         transform="matrix(0.00266565,0,0,0.00308498,-0.39081151,-0.58026785)"
         id="path5388"
         style="fill:#613c77;fill-opacity:1;stroke:none" />
      <path
         d="m 317.61787,351.64402 a 5.4180632,4.6815901 0 1 1 -6e-4,-0.01"
         transform="matrix(0.00266565,0,0,0.00308498,-0.39081151,-0.58026785)"
         id="path5253"
         style="fill:url(#radialGradient5338);fill-opacity:1;stroke:none" />
      <path
         d="m 317.61787,351.64402 a 5.4180632,4.6815901 0 1 1 -6e-4,-0.01"
         transform="matrix(0.00266565,0,0,0.00308498,-0.39081151,-0.58026785)"
         id="path5265"
         style="fill:url(#radialGradient5300);fill-opacity:1;stroke:none" />
      <path
         d="m 317.61787,351.64402 a 5.4180632,4.6815901 0 1 1 -6e-4,-0.01"
         transform="matrix(5.4183398e-5,0,0,5.8376595e-5,0.42920855,0.48074963)"
         id="path5263"
         style="fill:#ffffff;fill-opacity:1;stroke:none;filter:url(#filter5576)" />
    </g>
  </g>
  <g
     transform="translate(-0.64286619,1.0928398)"
     id="layer9"
     style="display:inline">
    <rect
       width="1.9583375"
       height="0.69444597"
       x="0.64286619"
       y="-1.0928398"
       id="rect5751"
       style="fill:none;stroke:#ff00ff;stroke-width:0;stroke-miterlimit:4;stroke-opacity:1;stroke-dasharray:none;display:inline" />
  </g>
</svg>
