<?xml version="1.0" encoding="UTF-8" standalone="no"?>
<!-- Created with Inkscape (http://www.inkscape.org/) -->

<svg
   xmlns:dc="http://purl.org/dc/elements/1.1/"
   xmlns:cc="http://creativecommons.org/ns#"
   xmlns:rdf="http://www.w3.org/1999/02/22-rdf-syntax-ns#"
   xmlns:svg="http://www.w3.org/2000/svg"
   xmlns="http://www.w3.org/2000/svg"
   version="1.1"
   width="848.125"
   height="100.09375"
   viewBox="0 0 848 100"
   id="svg2">
  <defs
     id="defs4" />
  <metadata
     id="metadata7">
    <rdf:RDF>
      <cc:Work
         rdf:about="">
        <dc:format>image/svg+xml</dc:format>
        <dc:type
           rdf:resource="http://purl.org/dc/dcmitype/StillImage" />
        <dc:title></dc:title>
      </cc:Work>
    </rdf:RDF>
  </metadata>
  <g
     transform="translate(285.08264,-700.39062)"
     id="layer3"
     style="display:inline">
    <g
       transform="matrix(3,0,0,3,-278.27014,-1501.3047)"
       id="text2985-4"
       style="font-size:18px;font-style:normal;font-variant:normal;font-weight:normal;font-stretch:normal;line-height:125%;letter-spacing:0px;word-spacing:0px;fill:#215968;fill-opacity:1;stroke:#215968;stroke-width:0.5;stroke-miterlimit:4;stroke-opacity:1;font-family:MOE;-inkscape-font-specification:MOE">
      <path
         d="m 48.023438,763 c -5e-5,0.90625 -0.37505,1.47656 -1.125,1.71094 -0.312549,0.0937 -1.062548,0.14062 -2.25,0.14062 -1.218796,0 -1.82817,-0.61718 -1.828125,-1.85156 l 0,-18.46875 -15.351563,18.9375 c -0.812528,1 -1.91409,1.5 -3.304687,1.5 -1.406275,0 -2.515649,-0.5 -3.328125,-1.5 L 5.2031252,744.4375 l 0,18.5625 c -7e-6,1.23438 -0.6093814,1.85156 -1.828125,1.85156 -1.203129,0 -1.9531282,-0.0469 -2.25,-0.14062 C 0.37499804,764.47656 -1.5897064e-6,763.90625 2.3841858e-7,763 l 0,-23.95313 C -1.5897064e-6,737.28128 0.96874744,736.39847 2.9062502,736.39844 c 1.265619,3e-5 2.281243,0.45315 3.046875,1.35937 L 24.234375,759.39062 42.09375,737.73437 c 0.749956,-0.90622 1.73433,-1.35934 2.953125,-1.35937 1.984326,3e-5 2.976513,0.96096 2.976563,2.88281 z"
         id="path3794"
         style="font-size:48px;fill:#215968;stroke:#215968" />
      <path
         d="m 86.25,757.1875 c -3.6e-5,5.10938 -4.414094,7.66406 -13.242187,7.66406 l -8.109375,0 c -3.578137,0 -6.398446,-0.45312 -8.460938,-1.35937 -3.156253,-1.28125 -4.734377,-3.375 -4.734375,-6.28125 l 0,-13.17188 c -2e-6,-5.15622 4.398432,-7.73434 13.195313,-7.73437 l 8.109375,0 c 4.109348,3e-5 7.007782,0.3594 8.695312,1.07812 3.031215,1.1719 4.546839,3.39065 4.546875,6.65625 z m -5.226562,-0.11719 0,-12.91406 c -3.1e-5,-2.40623 -2.632841,-3.60935 -7.898438,-3.60938 l -8.25,0 c -5.312509,3e-5 -7.968757,1.20315 -7.96875,3.60938 l 0,12.91406 c -7e-6,2.32813 2.656241,3.49219 7.96875,3.49219 l 8.273438,0 c 5.249971,0 7.874969,-1.16406 7.875,-3.49219 z"
         id="path3796"
         style="font-size:48px;fill:#215968;stroke:#215968" />
      <path
         d="m 114.30469,750.57812 c -3e-5,1.51564 -0.64847,2.27345 -1.94531,2.27344 l -18.070317,0 0,4.6875 c -6e-6,2.01563 2.226554,3.02344 6.679687,3.02344 l 18.375,0 c 1.21872,0 1.82809,0.61719 1.82813,1.85156 -4e-5,1.625 -0.60941,2.4375 -1.82813,2.4375 l -18.60937,0 c -2.718765,0 -5.21095,-0.48437 -7.476567,-1.45312 -2.781253,-1.26562 -4.171876,-3.15625 -4.171875,-5.67188 l 0,-14.15625 c -10e-7,-1.35935 0.460936,-2.59372 1.382812,-3.70312 1.999996,-2.37498 5.570305,-3.56247 10.71094,-3.5625 l 5.08594,0 c 1.2031,3e-5 1.80466,0.7969 1.80468,2.39062 -2e-5,1.2344 -0.60158,1.85159 -1.80468,1.85156 l -0.75,0 -0.46875,0 -0.25782,0 c -0.17189,3e-5 -0.26564,-0.008 -0.28125,-0.0234 -0.39064,-0.0156 -0.72658,-0.0273 -1.00781,-0.0352 -0.28126,-0.008 -0.51564,-0.0117 -0.70312,-0.0117 -5.703139,3e-5 -8.554698,1.03128 -8.554692,3.09375 l 0,4.99219 18.140622,0 c 1.28123,2e-5 1.92185,0.67189 1.92188,2.01562 z"
         id="path3798"
         style="font-size:48px;fill:#215968;stroke:#215968" />
    </g>
    <g
       transform="matrix(3,0,0,3,-278.27014,-1501.3047)"
       id="text3011-1"
       style="font-size:36px;font-style:normal;font-variant:normal;font-weight:normal;font-stretch:normal;line-height:125%;letter-spacing:0px;word-spacing:0px;fill:#215968;fill-opacity:1;stroke:#215968;stroke-width:0.5;stroke-miterlimit:4;stroke-opacity:1;font-family:MOE;-inkscape-font-specification:MOE">
      <path
         d="m 161.52014,750.59375 c -2e-5,1.72918 -0.21877,2.95834 -0.65625,3.6875 -1.07294,1.79168 -3.58856,2.68751 -7.54687,2.6875 l -7.89063,0 c -3.20834,10e-6 -4.8125,0.59897 -4.8125,1.79687 l 0,3.34375 19.60938,0 c 0.84372,10e-6 1.2656,0.47397 1.26562,1.42188 -2e-5,0.95833 -0.4219,1.4375 -1.26562,1.4375 l -21.82813,0 c -0.8125,0 -1.21875,-0.41146 -1.21875,-1.23438 l 0,-4.9375 c 0,-2.1354 1.48437,-3.56249 4.45313,-4.28125 0.57291,-0.1354 1.17968,-0.23696 1.82031,-0.30468 0.64062,-0.0677 1.32551,-0.10155 2.05469,-0.10157 l 7.6875,0 c 0.86456,2e-5 1.83331,-0.10415 2.90625,-0.3125 1.30206,-0.31248 1.9531,-0.83332 1.95312,-1.5625 l 0,-1.625 c -2e-5,-0.87498 -1.16148,-1.44269 -3.48437,-1.70312 -0.84377,-0.0937 -4.95835,-0.10936 -12.34375,-0.0469 -0.51043,2e-5 -0.85938,-0.15623 -1.04688,-0.46875 -0.11459,-0.20831 -0.17188,-0.58852 -0.17187,-1.14062 -1e-5,-0.81248 0.40624,-1.21873 1.21875,-1.21875 6.95832,-0.0625 10.95831,-0.0755 12,-0.0391 1.04164,0.0365 1.78123,0.0912 2.21875,0.16406 1.36456,0.22919 2.49997,0.68752 3.40625,1.375 1.11456,0.84377 1.67185,1.8646 1.67187,3.0625 z"
         id="path3801"
         style="font-size:32px;fill:#215968;stroke:#215968" />
      <path
         d="m 186.61389,759.85937 c -2e-5,3.40626 -2.93231,5.10938 -8.79687,5.10938 l -5.40625,0 c -5.68751,0 -8.63542,-1.54167 -8.84375,-4.625 -0.0312,-0.47916 -0.0469,-1.28124 -0.0469,-2.40625 0,-0.76041 0.0156,-1.90103 0.0469,-3.42188 0.0312,-1.5104 0.0469,-2.65102 0.0469,-3.42187 0,-3.43748 2.93229,-5.15623 8.79688,-5.15625 l 5.40625,0 c 5.86456,2e-5 8.79685,1.71356 8.79687,5.14062 z m -3.46875,-0.10937 0,-8.57813 c -2e-5,-1.60415 -1.75523,-2.40623 -5.26562,-2.40625 l -5.51563,0 c -1.50001,2e-5 -2.59896,0.0938 -3.29687,0.28125 -1.33334,0.3646 -2.00001,1.07814 -2,2.14063 l 0,8.59375 c -1e-5,1.55209 1.76562,2.32813 5.29687,2.32812 l 5.51563,0 c 1.64581,10e-6 2.73435,-0.0833 3.26562,-0.25 1.33331,-0.34374 1.99998,-1.04687 2,-2.10937 z"
         id="path3803"
         style="font-size:32px;fill:#215968;stroke:#215968" />
      <path
         d="m 192.64514,763.73437 c 0,0.61459 -0.24479,0.9948 -0.73437,1.14063 -0.20834,0.0625 -0.70834,0.0937 -1.5,0.0937 -0.82292,0 -1.23438,-0.41146 -1.23438,-1.23438 l 0,-16.57812 c 0,-0.81248 0.41146,-1.21873 1.23438,-1.21875 0.79166,2e-5 1.29166,0.0313 1.5,0.0937 0.48958,0.14585 0.73437,0.52085 0.73437,1.125 z"
         id="path3805"
         style="font-size:32px;fill:#215968;stroke:#215968" />
      <path
         d="m 220.77014,763.73437 c -3e-5,0.84376 -0.52607,1.26563 -1.57812,1.26563 -0.83336,0 -1.34899,-0.0312 -1.54688,-0.0937 -0.52085,-0.15625 -0.78127,-0.54687 -0.78125,-1.17188 l 0,-3.60937 -20.09375,0 c -1.16667,0 -1.75,-0.66145 -1.75,-1.98438 l 0,-10.96875 c 0,-0.62498 0.26042,-1.0156 0.78125,-1.17187 0.19792,-0.0625 0.71354,-0.0937 1.54688,-0.0937 1.05208,2e-5 1.57812,0.42189 1.57812,1.26562 l 0,9.67188 17.9375,0 0,-9.67188 c -2e-5,-0.62498 0.2604,-1.0156 0.78125,-1.17187 0.19789,-0.0625 0.71352,-0.0937 1.54688,-0.0937 1.05205,2e-5 1.57809,0.42189 1.57812,1.26562 z"
         id="path3807"
         style="font-size:32px;fill:#215968;stroke:#215968" />
      <path
         d="m 226.92639,763.25 c 0,0.53125 -0.23438,0.95833 -0.70312,1.28125 -0.40626,0.28125 -0.89063,0.42187 -1.45313,0.42187 -0.58333,0 -1.07292,-0.13541 -1.46875,-0.40625 -0.45833,-0.31249 -0.6875,-0.74479 -0.6875,-1.29687 0,-0.54166 0.22917,-0.96354 0.6875,-1.26563 0.42708,-0.27083 0.91146,-0.40624 1.45313,-0.40625 0.55208,10e-6 1.04166,0.13542 1.46875,0.40625 0.46874,0.31251 0.70312,0.73438 0.70312,1.26563 z"
         id="path3809"
         style="font-size:32px;fill:#215968;stroke:#215968" />
      <path
         d="m 252.05139,759.85937 c -2e-5,3.40626 -2.93231,5.10938 -8.79687,5.10938 l -5.40625,0 c -5.68751,0 -8.63542,-1.54167 -8.84375,-4.625 -0.0312,-0.47916 -0.0469,-1.28124 -0.0469,-2.40625 0,-0.76041 0.0156,-1.90103 0.0469,-3.42188 0.0312,-1.5104 0.0469,-2.65102 0.0469,-3.42187 0,-3.43748 2.93229,-5.15623 8.79688,-5.15625 l 5.40625,0 c 5.86456,2e-5 8.79685,1.71356 8.79687,5.14062 z m -3.46875,-0.10937 0,-8.57813 c -2e-5,-1.60415 -1.75523,-2.40623 -5.26562,-2.40625 l -5.51563,0 c -1.50001,2e-5 -2.59896,0.0938 -3.29687,0.28125 -1.33334,0.3646 -2.00001,1.07814 -2,2.14063 l 0,8.59375 c -1e-5,1.55209 1.76562,2.32813 5.29687,2.32812 l 5.51563,0 c 1.64581,10e-6 2.73435,-0.0833 3.26562,-0.25 1.33331,-0.34374 1.99998,-1.04687 2,-2.10937 z"
         id="path3811"
         style="font-size:32px;fill:#215968;stroke:#215968" />
      <path
         d="m 278.27014,760.07812 c -2e-5,2.21876 -1.43231,3.6823 -4.29687,4.39063 -1.57294,0.33333 -3.88544,0.5 -6.9375,0.5 -0.51043,0 -0.85418,-0.15104 -1.03125,-0.45313 -0.12502,-0.21874 -0.18752,-0.60937 -0.1875,-1.17187 -2e-5,-0.82291 0.40623,-1.23437 1.21875,-1.23438 0.1354,10e-6 0.29946,0.003 0.49218,0.008 0.1927,0.005 0.41926,0.013 0.67969,0.0234 0.0104,0.0104 0.0729,0.0156 0.1875,0.0156 l 0.17188,0 0.3125,0 0.5,0 c 3.63539,0 5.4531,-0.78125 5.45312,-2.34375 l 0,-1.28125 -11.8125,0 c -5.63542,10e-6 -8.45312,-1.61978 -8.45312,-4.85938 l 0,-3 c 0,-1.67706 0.92187,-2.93748 2.76562,-3.78125 1.28125,-0.63539 2.9427,-0.9531 4.98438,-0.95312 l 7.75,0 c 2.05206,2e-5 3.83331,0.32294 5.34375,0.96875 1.90622,0.87502 2.85935,2.25522 2.85937,4.14062 z m -3.4375,-4.375 0,-4.65625 c -2e-5,-0.83331 -0.64064,-1.4531 -1.92187,-1.85937 -0.89586,-0.28123 -1.89065,-0.42186 -2.98438,-0.42188 l -7.5625,0 c -1.11459,2e-5 -2.00001,0.1146 -2.65625,0.34375 -1.125,0.33335 -1.6875,0.86981 -1.6875,1.60938 l 0,2.89062 c 0,0.8021 0.64583,1.38022 1.9375,1.73438 0.97916,0.23959 1.97916,0.35938 3,0.35937 z"
         id="path3813"
         style="font-size:32px;fill:#215968;stroke:#215968" />
    </g>
  </g>
</svg>
